HIERARCHY
ROOT mixamorig:Hips
{
	OFFSET 0.000000 77.627144 7.190781
	CHANNELS 6 Xposition Yposition Zposition Xrotation Yrotation Zrotation
	JOINT mixamorig:Spine
	{
		OFFSET 0.000000 14.685707 -1.734714
		CHANNELS 3 Xrotation Yrotation Zrotation
		JOINT mixamorig:Spine1
		{
			OFFSET 0.000000 17.133331 -2.023833
			CHANNELS 3 Xrotation Yrotation Zrotation
			JOINT mixamorig:Spine2
			{
				OFFSET 0.000000 19.580948 -2.312953
				CHANNELS 3 Xrotation Yrotation Zrotation
				JOINT mixamorig:Neck
				{
					OFFSET 0.000000 22.028564 -2.602070
					CHANNELS 3 Xrotation Yrotation Zrotation
					JOINT mixamorig:Head
					{
						OFFSET 0.000000 7.772293 1.167654
						CHANNELS 3 Xrotation Yrotation Zrotation
						JOINT mixamorig:HeadTop_End
						{
							OFFSET 0.000000 26.518158 3.983897
							CHANNELS 3 Xrotation Yrotation Zrotation
							End Site
							{
								OFFSET 0.000000 26.815750 0.000000
							}
						}
					}
				}
				JOINT mixamorig:LeftShoulder
				{
					OFFSET 11.646637 18.513367 -2.583829
					CHANNELS 3 Xrotation Yrotation Zrotation
					JOINT mixamorig:LeftArm
					{
						OFFSET 23.494797 -6.787735 0.036483
						CHANNELS 3 Xrotation Yrotation Zrotation
						JOINT mixamorig:LeftForeArm
						{
							OFFSET 22.628841 -2.236465 0.895561
							CHANNELS 3 Xrotation Yrotation Zrotation
							JOINT mixamorig:LeftHand
							{
								OFFSET 32.235813 0.214081 0.341628
								CHANNELS 3 Xrotation Yrotation Zrotation
								JOINT mixamorig:LeftHandThumb1
								{
									OFFSET 4.043732 -2.301453 4.675424
									CHANNELS 3 Xrotation Yrotation Zrotation
									JOINT mixamorig:LeftHandThumb2
									{
										OFFSET 3.235001 -1.841141 3.740334
										CHANNELS 3 Xrotation Yrotation Zrotation
										JOINT mixamorig:LeftHandThumb3
										{
											OFFSET 4.136284 -1.355438 2.884997
											CHANNELS 3 Xrotation Yrotation Zrotation
											JOINT mixamorig:LeftHandThumb4
											{
												OFFSET 3.443222 -1.440781 1.895251
												CHANNELS 3 Xrotation Yrotation Zrotation
												End Site
												{
													OFFSET 3.082619 -1.455811 2.429330
												}
											}
										}
									}
								}
								JOINT mixamorig:LeftHandIndex1
								{
									OFFSET 12.534279 0.552322 5.370454
									CHANNELS 3 Xrotation Yrotation Zrotation
									JOINT mixamorig:LeftHandIndex2
									{
										OFFSET 4.462021 -0.042068 -0.222766
										CHANNELS 3 Xrotation Yrotation Zrotation
										JOINT mixamorig:LeftHandIndex3
										{
											OFFSET 4.426414 -0.140015 -0.221126
											CHANNELS 3 Xrotation Yrotation Zrotation
											JOINT mixamorig:LeftHandIndex4
											{
												OFFSET 3.584976 -0.033737 -0.180877
												CHANNELS 3 Xrotation Yrotation Zrotation
												End Site
												{
													OFFSET 3.584984 -0.033707 -0.180676
												}
											}
										}
									}
								}
								JOINT mixamorig:LeftHandMiddle1
								{
									OFFSET 12.067444 0.830978 1.411757
									CHANNELS 3 Xrotation Yrotation Zrotation
									JOINT mixamorig:LeftHandMiddle2
									{
										OFFSET 5.488625 0.110443 -0.140360
										CHANNELS 3 Xrotation Yrotation Zrotation
										JOINT mixamorig:LeftHandMiddle3
										{
											OFFSET 5.193268 -0.285706 -0.132956
											CHANNELS 3 Xrotation Yrotation Zrotation
											JOINT mixamorig:LeftHandMiddle4
											{
												OFFSET 4.443779 -0.316895 -0.113542
												CHANNELS 3 Xrotation Yrotation Zrotation
												End Site
												{
													OFFSET 4.443962 -0.316620 -0.107084
												}
											}
										}
									}
								}
								JOINT mixamorig:LeftHandRing1
								{
									OFFSET 12.202324 0.602158 -2.428782
									CHANNELS 3 Xrotation Yrotation Zrotation
									JOINT mixamorig:LeftHandRing2
									{
										OFFSET 4.681709 0.293594 -0.070412
										CHANNELS 3 Xrotation Yrotation Zrotation
										JOINT mixamorig:LeftHandRing3
										{
											OFFSET 4.517784 0.001785 -0.067170
											CHANNELS 3 Xrotation Yrotation Zrotation
											JOINT mixamorig:LeftHandRing4
											{
												OFFSET 3.536186 -0.473984 -0.050865
												CHANNELS 3 Xrotation Yrotation Zrotation
												End Site
												{
													OFFSET 3.536438 -0.473450 -0.036327
												}
											}
										}
									}
								}
								JOINT mixamorig:LeftHandPinky1
								{
									OFFSET 11.261032 -0.021225 -5.740205
									CHANNELS 3 Xrotation Yrotation Zrotation
									JOINT mixamorig:LeftHandPinky2
									{
										OFFSET 4.446136 0.226913 -0.056313
										CHANNELS 3 Xrotation Yrotation Zrotation
										JOINT mixamorig:LeftHandPinky3
										{
											OFFSET 3.536148 0.035980 -0.044635
											CHANNELS 3 Xrotation Yrotation Zrotation
											JOINT mixamorig:LeftHandPinky4
											{
												OFFSET 2.822449 0.069366 -0.035670
												CHANNELS 3 Xrotation Yrotation Zrotation
												End Site
												{
													OFFSET 2.822449 0.069397 -0.035034
												}
											}
										}
									}
								}
							}
						}
					}
				}
				JOINT mixamorig:RightShoulder
				{
					OFFSET -11.646637 18.513367 -2.620312
					CHANNELS 3 Xrotation Yrotation Zrotation
					JOINT mixamorig:RightArm
					{
						OFFSET -23.494804 -6.787735 -0.036485
						CHANNELS 3 Xrotation Yrotation Zrotation
						JOINT mixamorig:RightForeArm
						{
							OFFSET -22.628826 -2.236481 0.960591
							CHANNELS 3 Xrotation Yrotation Zrotation
							JOINT mixamorig:RightHand
							{
								OFFSET -32.235806 0.214096 0.317908
								CHANNELS 3 Xrotation Yrotation Zrotation
								JOINT mixamorig:RightHandThumb1
								{
									OFFSET -4.056908 -2.304855 4.721249
									CHANNELS 3 Xrotation Yrotation Zrotation
									JOINT mixamorig:RightHandThumb2
									{
										OFFSET -3.245529 -1.843887 3.777003
										CHANNELS 3 Xrotation Yrotation Zrotation
										JOINT mixamorig:RightHandThumb3
										{
											OFFSET -4.153908 -1.359879 2.907515
											CHANNELS 3 Xrotation Yrotation Zrotation
											JOINT mixamorig:RightHandThumb4
											{
												OFFSET -3.491310 -1.375549 1.529044
												CHANNELS 3 Xrotation Yrotation Zrotation
												End Site
												{
													OFFSET -3.035126 -1.400162 2.290608
												}
											}
										}
									}
								}
								JOINT mixamorig:RightHandIndex1
								{
									OFFSET -12.331047 0.757294 5.317495
									CHANNELS 3 Xrotation Yrotation Zrotation
									JOINT mixamorig:RightHandIndex2
									{
										OFFSET -4.758568 -0.224289 -0.035605
										CHANNELS 3 Xrotation Yrotation Zrotation
										JOINT mixamorig:RightHandIndex3
										{
											OFFSET -4.415932 -0.181503 -0.033052
											CHANNELS 3 Xrotation Yrotation Zrotation
											JOINT mixamorig:RightHandIndex4
											{
												OFFSET -3.678474 0.414856 -0.027373
												CHANNELS 3 Xrotation Yrotation Zrotation
												End Site
												{
													OFFSET -3.678375 0.414001 -0.046045
												}
											}
										}
									}
								}
								JOINT mixamorig:RightHandMiddle1
								{
									OFFSET -12.051239 0.663742 1.548264
									CHANNELS 3 Xrotation Yrotation Zrotation
									JOINT mixamorig:RightHandMiddle2
									{
										OFFSET -5.374817 0.301971 -0.166537
										CHANNELS 3 Xrotation Yrotation Zrotation
										JOINT mixamorig:RightHandMiddle3
										{
											OFFSET -5.310471 -0.301758 -0.164593
											CHANNELS 3 Xrotation Yrotation Zrotation
											JOINT mixamorig:RightHandMiddle4
											{
												OFFSET -4.485832 -0.342514 -0.139207
												CHANNELS 3 Xrotation Yrotation Zrotation
												End Site
												{
													OFFSET -4.486198 -0.342010 -0.127963
												}
											}
										}
									}
								}
								JOINT mixamorig:RightHandRing1
								{
									OFFSET -12.195183 0.742325 -2.381488
									CHANNELS 3 Xrotation Yrotation Zrotation
									JOINT mixamorig:RightHandRing2
									{
										OFFSET -4.583191 0.034424 -0.012763
										CHANNELS 3 Xrotation Yrotation Zrotation
										JOINT mixamorig:RightHandRing3
										{
											OFFSET -4.612793 0.026199 -0.012632
											CHANNELS 3 Xrotation Yrotation Zrotation
											JOINT mixamorig:RightHandRing4
											{
												OFFSET -3.314957 -0.541855 -0.006643
												CHANNELS 3 Xrotation Yrotation Zrotation
												End Site
												{
													OFFSET -3.315063 -0.541092 0.010116
												}
											}
										}
									}
								}
								JOINT mixamorig:RightHandPinky1
								{
									OFFSET -11.332825 -0.054398 -5.574547
									CHANNELS 3 Xrotation Yrotation Zrotation
									JOINT mixamorig:RightHandPinky2
									{
										OFFSET -4.462639 0.300003 -0.206312
										CHANNELS 3 Xrotation Yrotation Zrotation
										JOINT mixamorig:RightHandPinky3
										{
											OFFSET -3.493774 0.049591 -0.161451
											CHANNELS 3 Xrotation Yrotation Zrotation
											JOINT mixamorig:RightHandPinky4
											{
												OFFSET -2.793701 0.056946 -0.129098
												CHANNELS 3 Xrotation Yrotation Zrotation
												End Site
												{
													OFFSET -2.793793 0.057053 -0.126857
												}
											}
										}
									}
								}
							}
						}
					}
				}
			}
		}
	}
	JOINT mixamorig:LeftUpLeg
	{
		OFFSET 13.580879 -8.149223 -1.796077
		CHANNELS 3 Xrotation Yrotation Zrotation
		JOINT mixamorig:LeftLeg
		{
			OFFSET 3.676140 -35.802425 -2.676071
			CHANNELS 3 Xrotation Yrotation Zrotation
			JOINT mixamorig:LeftFoot
			{
				OFFSET -0.369089 -26.709160 -2.057140
				CHANNELS 3 Xrotation Yrotation Zrotation
				JOINT mixamorig:LeftToeBase
				{
					OFFSET -1.192477 -6.581660 13.403662
					CHANNELS 3 Xrotation Yrotation Zrotation
					JOINT mixamorig:LeftToe_End
					{
						OFFSET -0.351336 -0.163913 5.937977
						CHANNELS 3 Xrotation Yrotation Zrotation
						End Site
						{
							OFFSET -0.351338 -0.163913 5.937977
						}
					}
				}
			}
		}
	}
	JOINT mixamorig:RightUpLeg
	{
		OFFSET -13.580879 -8.149223 -2.255285
		CHANNELS 3 Xrotation Yrotation Zrotation
		JOINT mixamorig:RightLeg
		{
			OFFSET -3.676140 -35.802425 -2.316821
			CHANNELS 3 Xrotation Yrotation Zrotation
			JOINT mixamorig:RightFoot
			{
				OFFSET 0.369059 -26.709040 -2.090143
				CHANNELS 3 Xrotation Yrotation Zrotation
				JOINT mixamorig:RightToeBase
				{
					OFFSET 1.192393 -6.582436 13.372205
					CHANNELS 3 Xrotation Yrotation Zrotation
					JOINT mixamorig:RightToe_End
					{
						OFFSET 0.351307 -0.164255 5.913618
						CHANNELS 3 Xrotation Yrotation Zrotation
						End Site
						{
							OFFSET 0.351309 -0.164255 5.913618
						}
					}
				}
			}
		}
	}
}
MOTION
Frames: 4
Frame Time: 0.016667
-0.907955 80.902115 7.331453 -1.959330 -0.009015 5.614227 -0.586638 2.732061 2.805748 0.013998 6.194751 -7.449829 -0.082593 6.136935 -7.492059 -1.906329 -0.261281 0.986619 2.770584 -1.731268 11.479939 0.000000 -0.000001 -0.000001 0.232009 5.636628 -6.172263 -3.076034 -32.194814 22.752931 -1.827703 -19.313091 -6.330335 3.277355 -18.282483 11.496490 0.502949 14.934523 6.990533 3.243160 -4.685034 -5.926730 -4.844262 -4.083317 5.619818 -0.000000 -0.000000 0.000000 0.509186 -9.502664 4.517071 0.063331 -0.001042 1.268597 -0.055500 -0.042241 -1.080124 0.000001 0.000003 0.000001 0.434688 -8.111749 2.827725 0.109502 0.003075 4.283363 0.023899 0.002763 0.928674 0.000001 -0.000001 0.000003 0.501515 -7.500522 0.383160 0.052703 0.011196 3.564968 0.111720 0.034714 7.655612 0.000001 -0.000002 -0.000001 0.167550 -3.304139 1.337014 0.222180 -4.067121 2.027894 -0.010430 0.000642 -0.824854 -0.000001 0.000001 0.000001 0.150786 -8.351266 6.100919 8.688591 29.230846 52.407768 23.749898 103.619509 -23.920344 -1.331934 16.039861 -37.161010 0.259798 -14.130579 -6.864755 3.954623 4.132429 6.367104 -6.083581 10.687320 -4.186512 -0.000004 0.000002 0.000004 0.073158 7.745651 -5.834477 -0.002609 0.000546 0.344926 -0.064327 0.005342 8.597332 -0.000000 -0.000002 0.000002 0.506739 9.067922 0.022959 0.199777 -0.011256 -6.461138 0.034369 0.002818 -1.113795 0.000000 -0.000002 -0.000001 0.241813 7.468045 -2.727046 0.000268 -0.002809 -0.105058 0.022540 -0.043710 -9.608445 0.000000 0.000001 0.000003 0.581468 9.933752 0.641909 0.139717 -0.004659 -3.025815 -0.016330 -0.000746 0.353341 0.000000 0.000005 0.000001 -11.403840 2.260516 -15.269190 29.395522 5.935860 0.510531 17.688469 1.809505 13.419378 -35.087088 0.000021 -0.000039 0.000000 -0.000000 -0.000001 -39.162543 4.445878 5.690720 89.877694 -13.912466 2.010022 22.724362 -6.687297 -9.660685 0.000010 0.000000 -0.000001 0.000003 0.000001 0.000000 
-1.185718 80.882957 7.200915 -2.629632 2.250448 5.906339 -0.298266 2.541811 2.466424 0.362198 5.415597 -7.673072 0.277858 5.378165 -7.700317 -1.907746 -0.325205 1.151645 2.684985 -1.905082 12.046891 -0.000000 -0.000001 -0.000001 0.243239 5.923261 -6.790122 -4.758751 -36.255457 21.595187 -1.651979 -17.707013 -6.276817 2.179676 -18.076210 12.987378 0.502948 14.934523 6.990524 3.243159 -4.685043 -5.926728 -4.844262 -4.083317 5.619818 -0.000000 0.000001 0.000000 0.509186 -9.502659 4.517070 0.063325 -0.001042 1.268593 -0.055502 -0.042245 -1.080122 -0.000001 0.000003 0.000000 0.434688 -8.111746 2.827722 0.109503 0.003078 4.283361 0.023897 0.002765 0.928675 -0.000000 0.000001 0.000001 0.501515 -7.500518 0.383158 0.052703 0.011197 3.564968 0.111721 0.034713 7.655612 -0.000001 0.000000 0.000003 0.167548 -3.304139 1.337008 0.222181 -4.067119 2.027895 -0.010427 0.000639 -0.824851 -0.000000 0.000002 -0.000002 0.159032 -7.683453 5.832348 13.510697 29.228613 52.235644 31.280668 100.636738 -31.281098 0.984773 15.684918 -39.994231 0.259798 -14.130573 -6.864759 3.954619 4.132431 6.367103 -6.083589 10.687322 -4.186516 0.000000 0.000002 0.000002 0.073156 7.745654 -5.834476 -0.002609 0.000543 0.344927 -0.064326 0.005341 8.597331 -0.000002 -0.000002 0.000000 0.506736 9.067923 0.022959 0.199778 -0.011253 -6.461139 0.034367 0.002813 -1.113795 0.000001 -0.000004 -0.000001 0.241812 7.468044 -2.727047 0.000266 -0.002811 -0.105058 0.022542 -0.043707 -9.608445 0.000001 -0.000004 0.000001 0.581467 9.933752 0.641910 0.139718 -0.004657 -3.025814 -0.016331 -0.000742 0.353341 0.000001 -0.000003 0.000001 -11.045578 2.368581 -15.384296 29.775404 5.036097 0.556706 18.212319 1.897669 13.404111 -35.411304 0.000021 -0.000041 0.000000 -0.000001 -0.000000 -39.872069 4.554419 4.792105 86.978498 -13.867566 1.900672 23.187541 -6.480870 -10.679627 0.000015 -0.000001 -0.000005 0.000003 0.000001 0.000001 
-1.489512 80.743210 7.182123 -3.451174 5.392164 6.429336 0.033510 2.209871 1.878243 0.737014 4.319080 -7.852159 0.672305 4.305123 -7.867199 -1.917443 -0.409490 1.307155 2.575629 -2.200778 12.641773 -0.000000 0.000001 0.000000 0.255803 6.258504 -7.494171 -6.741419 -41.110571 19.093422 -1.557897 -16.835183 -6.250127 1.290712 -17.859623 14.724039 0.502947 14.934514 6.990537 3.243158 -4.685045 -5.926730 -4.844264 -4.083319 5.619816 -0.000003 0.000003 -0.000007 0.509181 -9.502669 4.517075 0.063329 -0.001045 1.268594 -0.055502 -0.042247 -1.080126 -0.000000 0.000001 0.000001 0.434687 -8.111747 2.827723 0.109501 0.003075 4.283358 0.023895 0.002765 0.928679 0.000001 -0.000002 0.000001 0.501516 -7.500518 0.383161 0.052704 0.011194 3.564966 0.111720 0.034711 7.655610 -0.000003 0.000002 0.000001 0.167549 -3.304135 1.337017 0.222180 -4.067120 2.027895 -0.010432 0.000641 -0.824852 -0.000002 0.000003 0.000003 0.164756 -6.893736 5.449232 18.516042 28.203661 51.960507 51.172252 97.128159 -50.941159 4.579714 14.513372 -42.365406 0.259799 -14.130573 -6.864757 3.954624 4.132436 6.367102 -6.083584 10.687319 -4.186512 -0.000007 0.000006 0.000000 0.073157 7.745653 -5.834477 -0.002609 0.000553 0.344926 -0.064326 0.005336 8.597331 -0.000000 0.000002 0.000002 0.506738 9.067922 0.022959 0.199777 -0.011251 -6.461137 0.034367 0.002812 -1.113794 -0.000002 0.000003 -0.000000 0.241812 7.468038 -2.727046 0.000267 -0.002803 -0.105058 0.022543 -0.043702 -9.608445 0.000001 -0.000003 0.000001 0.581471 9.933755 0.641909 0.139717 -0.004656 -3.025816 -0.016331 -0.000742 0.353341 0.000001 0.000000 0.000002 -10.739159 2.594360 -15.652815 30.874586 4.218710 0.679150 18.095154 1.970538 13.636148 -35.920737 0.000015 -0.000036 0.000000 -0.000000 -0.000000 -40.093361 4.562347 3.044279 82.279464 -13.760618 1.736516 23.383376 -5.589931 -11.906646 0.000016 0.000002 -0.000004 0.000002 0.000000 -0.000001 
-1.799183 80.453156 7.320565 -4.394801 9.493498 7.145552 0.351013 1.689666 1.071534 1.068752 2.891052 -7.966177 1.028446 2.897704 -7.974334 -1.924136 -0.522225 1.500609 2.452512 -2.577872 13.184559 -0.000000 0.000000 0.000000 0.271263 6.591557 -8.191087 -9.347571 -46.487275 14.969753 -1.559015 -16.845610 -6.250430 0.641257 -17.635198 16.835605 0.502950 14.934513 6.990536 3.243157 -4.685033 -5.926728 -4.844263 -4.083321 5.619814 0.000000 0.000001 -0.000005 0.509183 -9.502671 4.517075 0.063328 -0.001046 1.268594 -0.055503 -0.042246 -1.080119 -0.000000 0.000000 -0.000000 0.434687 -8.111756 2.827726 0.109503 0.003077 4.283360 0.023896 0.002765 0.928680 0.000001 -0.000001 -0.000001 0.501515 -7.500529 0.383161 0.052701 0.011194 3.564967 0.111721 0.034714 7.655609 0.000003 -0.000000 -0.000002 0.167550 -3.304143 1.337009 0.222183 -4.067123 2.027891 -0.010429 0.000644 -0.824850 -0.000000 0.000002 0.000004 0.169653 -6.117695 5.006646 23.766263 26.484091 51.172792 106.172968 95.784114 -105.638281 9.529994 12.556681 -43.992777 0.259797 -14.130571 -6.864753 3.954621 4.132431 6.367101 -6.083585 10.687322 -4.186514 -0.000002 0.000000 0.000004 0.073156 7.745651 -5.834476 -0.002609 0.000550 0.344925 -0.064326 0.005339 8.597329 -0.000003 0.000000 0.000001 0.506736 9.067922 0.022959 0.199776 -0.011257 -6.461139 0.034367 0.002814 -1.113796 0.000003 -0.000001 -0.000001 0.241811 7.468043 -2.727046 0.000267 -0.002803 -0.105059 0.022539 -0.043709 -9.608446 -0.000001 0.000001 0.000000 0.581467 9.933750 0.641910 0.139717 -0.004656 -3.025814 -0.016333 -0.000742 0.353339 -0.000003 -0.000001 0.000001 -10.580030 2.938418 -15.892665 32.884311 3.391384 0.798282 17.199898 1.995143 14.017402 -36.559861 0.000017 -0.000037 0.000000 -0.000001 -0.000001 -39.720928 4.308848 0.541209 75.830645 -12.687525 1.545076 23.492501 -4.953084 -12.967001 0.000011 -0.000001 0.000001 -0.000003 0.000000 0.000000 
